<?xml version="1.0" standalone="no"?><!DOCTYPE svg PUBLIC "-//W3C//DTD SVG 1.1//EN" "http://www.w3.org/Graphics/SVG/1.1/DTD/svg11.dtd"><svg t="1575873737070" class="icon" viewBox="0 0 1024 1024" version="1.1" xmlns="http://www.w3.org/2000/svg" p-id="2183" xmlns:xlink="http://www.w3.org/1999/xlink" width="200" height="200"><defs><style type="text/css"></style></defs><path d="M512 793.6c-153.6 0-277.333333-123.733333-277.333333-277.333333s123.733333-277.333333 277.333333-277.333334 277.333333 123.733333 277.333333 277.333334-123.733333 277.333333-277.333333 277.333333z m0-512c-130.133333 0-234.666667 104.533333-234.666667 234.666667s104.533333 234.666667 234.666667 234.666666 234.666667-104.533333 234.666667-234.666666-104.533333-234.666667-234.666667-234.666667z" p-id="2184" fill="#ffffff"></path><path d="M509.866667 938.666667c-27.733333 0-53.333333-17.066667-61.866667-42.666667h-46.933333v-132.266667c0-12.8 8.533333-21.333333 21.333333-21.333333s21.333333 8.533333 21.333333 21.333333V853.333333h8.533334c17.066667 0 32 10.666667 36.266666 27.733334 2.133333 10.666667 10.666667 17.066667 21.333334 17.066666s19.2-6.4 21.333333-17.066666c4.266667-17.066667 19.2-27.733333 36.266667-27.733334h8.533333v-89.6c0-12.8 8.533333-21.333333 21.333333-21.333333s21.333333 8.533333 21.333334 21.333333V896h-46.933334c-8.533333 25.6-34.133333 42.666667-61.866666 42.666667zM512 192c-12.8 0-21.333333-8.533333-21.333333-21.333333V117.333333c0-12.8 8.533333-21.333333 21.333333-21.333333s21.333333 8.533333 21.333333 21.333333V170.666667c0 12.8-8.533333 21.333333-21.333333 21.333333z" p-id="2185" fill="#ffffff"></path><path d="M512 192c-12.8 0-21.333333-8.533333-21.333333-21.333333V117.333333c0-12.8 8.533333-21.333333 21.333333-21.333333s21.333333 8.533333 21.333333 21.333333V170.666667c0 12.8-8.533333 21.333333-21.333333 21.333333zM682.666667 236.8c-4.266667 0-6.4 0-10.666667-2.133333-10.666667-6.4-12.8-19.2-8.533333-29.866667l25.6-46.933333c6.4-10.666667 19.2-12.8 29.866666-8.533334 10.666667 6.4 12.8 19.2 8.533334 29.866667l-25.6 46.933333c-4.266667 8.533333-12.8 10.666667-19.2 10.666667zM808.533333 362.666667c-6.4 0-14.933333-4.266667-19.2-10.666667-6.4-10.666667-2.133333-23.466667 8.533334-29.866667l46.933333-25.6c10.666667-6.4 23.466667-2.133333 29.866667 8.533334 6.4 10.666667 2.133333 23.466667-8.533334 29.866666l-46.933333 25.6c-4.266667 2.133333-8.533333 2.133333-10.666667 2.133334zM906.666667 533.333333H853.333333c-12.8 0-21.333333-8.533333-21.333333-21.333333s8.533333-21.333333 21.333333-21.333333h53.333334c12.8 0 21.333333 8.533333 21.333333 21.333333s-8.533333 21.333333-21.333333 21.333333zM341.333333 236.8c-6.4 0-14.933333-4.266667-19.2-10.666667l-25.6-46.933333c-6.4-10.666667-2.133333-23.466667 8.533334-29.866667 10.666667-6.4 23.466667-2.133333 29.866666 8.533334l25.6 46.933333c6.4 10.666667 2.133333 23.466667-8.533333 29.866667-4.266667 2.133333-6.4 2.133333-10.666667 2.133333zM215.466667 362.666667c-4.266667 0-6.4 0-10.666667-2.133334l-46.933333-25.6c-10.666667-6.4-12.8-19.2-8.533334-29.866666 6.4-10.666667 19.2-12.8 29.866667-8.533334l46.933333 25.6c10.666667 6.4 12.8 19.2 8.533334 29.866667-4.266667 6.4-10.666667 10.666667-19.2 10.666667zM170.666667 533.333333H117.333333c-12.8 0-21.333333-8.533333-21.333333-21.333333s8.533333-21.333333 21.333333-21.333333H170.666667c12.8 0 21.333333 8.533333 21.333333 21.333333s-8.533333 21.333333-21.333333 21.333333zM522.666667 650.666667h-72.533334c-12.8 0-21.333333-8.533333-21.333333-21.333334s8.533333-21.333333 21.333333-21.333333h72.533334c23.466667 0 42.666667-17.066667 42.666666-36.266667 0-21.333333-19.2-36.266667-42.666666-36.266666h-17.066667c-46.933333 0-85.333333-36.266667-85.333333-78.933334s38.4-78.933333 85.333333-78.933333h64c12.8 0 21.333333 8.533333 21.333333 21.333333s-8.533333 21.333333-21.333333 21.333334h-64c-23.466667 0-42.666667 17.066667-42.666667 36.266666 0 21.333333 19.2 36.266667 42.666667 36.266667h17.066667c46.933333 0 85.333333 36.266667 85.333333 78.933333s-38.4 78.933333-85.333333 78.933334z" p-id="2186" fill="#ffffff"></path><path d="M514.133333 693.333333c-12.8 0-21.333333-8.533333-21.333333-21.333333v-42.666667c0-12.8 8.533333-21.333333 21.333333-21.333333s21.333333 8.533333 21.333334 21.333333v42.666667c0 12.8-10.666667 21.333333-21.333334 21.333333zM514.133333 416c-12.8 0-21.333333-8.533333-21.333333-21.333333v-42.666667c0-12.8 8.533333-21.333333 21.333333-21.333333s21.333333 8.533333 21.333334 21.333333v42.666667c0 12.8-10.666667 21.333333-21.333334 21.333333z" p-id="2187" fill="#ffffff"></path></svg>