<?xml version="1.0" standalone="no"?><!DOCTYPE svg PUBLIC "-//W3C//DTD SVG 1.1//EN" "http://www.w3.org/Graphics/SVG/1.1/DTD/svg11.dtd"><svg t="1586497598663" class="icon" viewBox="0 0 1024 1024" version="1.1" xmlns="http://www.w3.org/2000/svg" p-id="6118" xmlns:xlink="http://www.w3.org/1999/xlink" width="200" height="200"><defs><style type="text/css"></style></defs><path d="M164.6 147a87.6 87.6 0 1 0 87.6 87.6 87.7 87.7 0 0 0-87.6-87.6z" fill="#F9DB91" p-id="6119"></path><path d="M358.81 173.43l588.19 0 0 122.25-588.19 0 0-122.25Z" fill="#F9DB91" p-id="6120"></path><path d="M164.6 424.4a87.6 87.6 0 1 0 87.6 87.6 87.7 87.7 0 0 0-87.6-87.6z" fill="#AEF0FF" p-id="6121"></path><path d="M358.81 450.87l588.19 0 0 122.25-588.19 0 0-122.25Z" fill="#AEF0FF" p-id="6122"></path><path d="M164.6 701.85a87.6 87.6 0 1 0 87.6 87.6 87.7 87.7 0 0 0-87.6-87.6z" fill="#EF6A6A" p-id="6123"></path><path d="M358.81 728.32l588.19 0 0 122.25-588.19 0 0-122.25Z" fill="#EF6A6A" p-id="6124"></path><path d="M164.6 134a100.6 100.6 0 1 0 100.6 100.6A100.6 100.6 0 0 0 164.6 134z m0 175.2a74.6 74.6 0 1 1 74.6-74.6 74.69 74.69 0 0 1-74.6 74.55zM930 160.43H375.81a30.09 30.09 0 0 0-30 30v88.25a30.09 30.09 0 0 0 30 30H930a30.09 30.09 0 0 0 30-30v-88.25a30.09 30.09 0 0 0-30-30z m4 118.25a4.1 4.1 0 0 1-4 4H375.81a4.1 4.1 0 0 1-4-4v-88.25a4.1 4.1 0 0 1 4-4H930a4.1 4.1 0 0 1 4 4zM164.6 411.4A100.6 100.6 0 1 0 265.2 512a100.6 100.6 0 0 0-100.6-100.6z m0 175.2a74.6 74.6 0 1 1 74.6-74.6 74.69 74.69 0 0 1-74.6 74.6zM930 437.87H375.81a30.09 30.09 0 0 0-30 30v88.25a30.09 30.09 0 0 0 30 30H930a30.09 30.09 0 0 0 30-30v-88.25a30.09 30.09 0 0 0-30-30z m4 118.25a4.1 4.1 0 0 1-4 4H375.81a4.1 4.1 0 0 1-4-4v-88.25a4.1 4.1 0 0 1 4-4H930a4.1 4.1 0 0 1 4 4zM164.6 688.85a100.6 100.6 0 1 0 100.6 100.6 100.6 100.6 0 0 0-100.6-100.6z m0 175.2a74.6 74.6 0 1 1 74.6-74.6A74.69 74.69 0 0 1 164.6 864zM930 715.32H375.81a30.09 30.09 0 0 0-30 30v88.25a30.09 30.09 0 0 0 30 30H930a30.09 30.09 0 0 0 30-30v-88.25a30.09 30.09 0 0 0-30-30z m4 118.25a4.1 4.1 0 0 1-4 4H375.81a4.1 4.1 0 0 1-4-4v-88.25a4.1 4.1 0 0 1 4-4H930a4.1 4.1 0 0 1 4 4z" fill="#512C56" p-id="6125"></path></svg>