<?xml version="1.0" standalone="no"?><!DOCTYPE svg PUBLIC "-//W3C//DTD SVG 1.1//EN" "http://www.w3.org/Graphics/SVG/1.1/DTD/svg11.dtd"><svg t="1586753211430" class="icon" viewBox="0 0 1092 1024" version="1.1" xmlns="http://www.w3.org/2000/svg" p-id="16782" xmlns:xlink="http://www.w3.org/1999/xlink" width="213.28125" height="200"><defs><style type="text/css"></style></defs><path d="M170.666667 0h-68.266667C47.786667 0 0 47.786667 0 102.4v68.266667C0 75.093333 75.093333 0 170.666667 0zM0 785.066667v68.266666c0 54.613333 47.786667 102.4 102.4 102.4h68.266667C75.093333 955.733333 0 880.64 0 785.066667zM887.466667 170.666667v-68.266667c0-54.613333-47.786667-102.4-102.4-102.4h-68.266667C812.373333 0 887.466667 75.093333 887.466667 170.666667z" fill="#317EF2" p-id="16783"></path><path d="M477.866667 887.466667H170.666667c-54.613333 0-102.4-47.786667-102.4-102.4v-614.4C68.266667 116.053333 116.053333 68.266667 170.666667 68.266667h546.133333c54.613333 0 102.4 47.786667 102.4 102.4v177.493333c20.48 6.826667 47.786667 13.653333 68.266667 20.48V170.666667C887.466667 75.093333 812.373333 0 716.8 0h-546.133333C75.093333 0 0 75.093333 0 170.666667v614.4C0 880.64 75.093333 955.733333 170.666667 955.733333H546.133333c-27.306667-20.48-47.786667-40.96-68.266666-68.266666z" fill="#317EF2" p-id="16784"></path><path d="M648.533333 136.533333h-409.6c-20.48 0-34.133333 13.653333-34.133333 34.133334s13.653333 34.133333 34.133333 34.133333h409.6c20.48 0 34.133333-13.653333 34.133334-34.133333S669.013333 136.533333 648.533333 136.533333zM238.933333 341.333333c-20.48 0-34.133333 13.653333-34.133333 34.133334s13.653333 34.133333 34.133333 34.133333H546.133333c34.133333-27.306667 81.92-47.786667 122.88-61.44 0 0-13.653333-6.826667-20.48-6.826667h-409.6zM225.28 546.133333c-13.653333 0-20.48 13.653333-20.48 34.133334s6.826667 34.133333 20.48 34.133333H416.426667c6.826667-20.48 13.653333-47.786667 20.48-68.266667H225.28z" fill="#317EF2" p-id="16785"></path><path d="M750.933333 409.6c-150.186667 0-273.066667 122.88-273.066666 273.066667s122.88 273.066667 273.066666 273.066666 273.066667-122.88 273.066667-273.066666-122.88-273.066667-273.066667-273.066667z m34.133334 286.72v143.36c0 27.306667-13.653333 47.786667-47.786667 47.786667H655.36l-13.653333-40.96h75.093333c13.653333 0 20.48-6.826667 20.48-20.48v-129.706667H546.133333v-40.96h191.146667v-61.44c40.96-20.48 75.093333-47.786667 109.226667-75.093333H593.92V477.866667h307.2v40.96c-34.133333 34.133333-75.093333 68.266667-122.88 95.573333v34.133333H955.733333v40.96h-170.666666z" fill="#FFFFFF" p-id="16786"></path><path d="M887.466667 368.64c-20.48-6.826667-47.786667-20.48-68.266667-20.48-20.48-6.826667-47.786667-6.826667-68.266667-6.826667-27.306667 0-54.613333 6.826667-75.093333 6.826667-47.786667 13.653333-88.746667 34.133333-129.706667 61.44-47.786667 34.133333-81.92 81.92-109.226666 136.533333-6.826667 20.48-13.653333 47.786667-20.48 68.266667-6.826667 20.48-6.826667 47.786667-6.826667 68.266667 0 75.093333 27.306667 150.186667 68.266667 204.8 20.48 27.306667 40.96 47.786667 68.266666 68.266666 54.613333 40.96 129.706667 68.266667 204.8 68.266667 191.146667 0 341.333333-150.186667 341.333334-341.333333 0-136.533333-81.92-259.413333-204.8-314.026667zM750.933333 955.733333c-150.186667 0-273.066667-122.88-273.066666-273.066666s122.88-273.066667 273.066666-273.066667 273.066667 122.88 273.066667 273.066667-122.88 273.066667-273.066667 273.066666z" fill="#317EF2" p-id="16787"></path><path d="M785.066667 655.36v-34.133333c47.786667-34.133333 88.746667-61.44 122.88-95.573334V477.866667H593.92v40.96h252.586667c-34.133333 27.306667-68.266667 54.613333-109.226667 75.093333v61.44H546.133333v40.96h191.146667v129.706667c0 13.653333-6.826667 20.48-20.48 20.48H641.706667l13.653333 40.96h81.92c27.306667 0 47.786667-13.653333 47.786667-47.786667v-143.36H955.733333v-40.96h-170.666666z" fill="#317EF2" p-id="16788"></path></svg>