<?xml version="1.0" standalone="no"?><!DOCTYPE svg PUBLIC "-//W3C//DTD SVG 1.1//EN" "http://www.w3.org/Graphics/SVG/1.1/DTD/svg11.dtd"><svg t="1545655517713" class="icon" style="" viewBox="0 0 1024 1024" version="1.1" xmlns="http://www.w3.org/2000/svg" p-id="2733" xmlns:xlink="http://www.w3.org/1999/xlink" width="200" height="200"><defs><style type="text/css"></style></defs><path d="M909.7 132.6v620H114.3v-620h795.4m50-50H64.3v720h895.5v-720h-0.1zM317.9 208.3L150.8 407.4l0.2 0.2 167.1 199.2 38.3-32.1-140.3-167.3 140.2-167-38.4-32.1z m389 0l-38.3 32.1 140.2 167-140.4 167.3 38.3 32.1 167.1-199.2 0.2-0.2-167.1-199.1z m-143.5 1.2l-149 403.4 46.9 17.3 149-403.4-46.9-17.3zM957 855.8H67v50h890v-50z" fill="" p-id="2734"></path></svg>