<?xml version="1.0" standalone="no"?><!DOCTYPE svg PUBLIC "-//W3C//DTD SVG 1.1//EN" "http://www.w3.org/Graphics/SVG/1.1/DTD/svg11.dtd"><svg t="1586494829802" class="icon" viewBox="0 0 1024 1024" version="1.1" xmlns="http://www.w3.org/2000/svg" p-id="5059" xmlns:xlink="http://www.w3.org/1999/xlink" width="200" height="200"><defs><style type="text/css"></style></defs><path d="M812.047 319.521L668.064 329h-0.542C636.857 329 612 303.638 612 272.972V119.614c0-7.776 1.518-15.614 4.413-21.614H222.83c-12.2 0-21.83 9.533-21.83 21.614v785.331c0 12.08 9.63 22.056 21.83 22.056h584.785c11.961 0 21.385-9.975 21.385-22.056V316.417c-5 1.813-10.978 3.042-16.953 3.104zM732.828 843h-435.21c-16.89 0-30.582-9.4-30.582-21.5s13.692-21.5 30.582-21.5h435.21c16.89 0 30.582 9.4 30.582 21.5S749.718 843 732.828 843z m0-128h-435.21c-16.89 0-30.582-9.9-30.582-22s13.692-22 30.582-22h435.21c16.89 0 30.582 9.9 30.582 22s-13.692 22-30.582 22z m0-130h-435.21c-16.89 0-30.582-9.9-30.582-22s13.692-22 30.582-22h435.21c16.89 0 30.582 9.9 30.582 22s-13.692 22-30.582 22z m0-129h-435.21c-16.89 0-30.582-9.9-30.582-22s13.692-22 30.582-22h435.21c16.89 0 30.582 9.9 30.582 22s-13.692 22-30.582 22z" fill="#F9F455" p-id="5060"></path><path d="M651.216 287.588c-2.923-3.696-4.534-8.214-5.416-11.798a21.845 21.845 0 0 0 5.416 11.798zM646 119.614v8.258l24.243 166.167c-3.092 0.552-5.9 0.536-8.285 0.098 1.663 0.445 3.354 0.897 5.147 0.934L811.07 286h0.541c9.96 0 18.388-6.874 21.041-15.989L661.602 98.67C652.487 101.322 646 109.654 646 119.614z" fill="#FF9702" p-id="5061"></path><path d="M867 256.723L674.503 64h-6.981c-1.705 0-3.522 0.089-5.522 0.24V64H222.83C192.045 64 167 88.948 167 119.614v785.331C167 935.61 192.045 961 222.83 961h584.785C838.161 961 863 935.61 863 904.944V284.921c3-6.542 4-13.707 4-21.218v-6.98zM807.615 927H222.83c-12.2 0-21.83-9.975-21.83-22.056v-785.33C201 107.533 210.63 98 222.83 98h393.583c-2.895 6-4.413 13.837-4.413 21.614v153.359C612 303.638 636.857 329 667.522 329h0.542l143.984-9.479c5.975-0.062 11.953-1.291 16.953-3.104v588.527C829 917.025 819.576 927 807.615 927z m25.037-656.989C830 279.126 821.571 286 811.612 286h-0.541l-144.014 9.07c-1.793-0.037-3.532-0.392-5.195-0.837-4.729-0.869-8.162-3.457-10.645-6.596-2.889-3.22-4.721-7.322-5.301-11.823-0.873-3.552-0.915-6.212-0.915-6.212v-147.46l1 5.73v-8.258c0-9.96 6.487-18.291 15.602-20.944l171.049 171.341z" fill="" p-id="5062"></path><path d="M732.828 412h-435.21c-16.89 0-30.582 9.9-30.582 22s13.692 22 30.582 22h435.21c16.89 0 30.582-9.9 30.582-22s-13.692-22-30.582-22zM732.828 541h-435.21c-16.89 0-30.582 9.9-30.582 22s13.692 22 30.582 22h435.21c16.89 0 30.582-9.9 30.582-22s-13.692-22-30.582-22zM732.828 671h-435.21c-16.89 0-30.582 9.9-30.582 22s13.692 22 30.582 22h435.21c16.89 0 30.582-9.9 30.582-22s-13.692-22-30.582-22zM732.828 800h-435.21c-16.89 0-30.582 9.4-30.582 21.5s13.692 21.5 30.582 21.5h435.21c16.89 0 30.582-9.4 30.582-21.5S749.718 800 732.828 800z" fill="" p-id="5063"></path><path d="M670.05 294.038l-24.322-166.167-0.728-5.73v147.46s0.042 2.635 0.915 6.188c0.881 3.584 2.435 8.103 5.359 11.798 2.483 3.139 5.887 5.679 10.616 6.548 2.385 0.439 5.068 0.455 8.16-0.097z" fill="#FFFFFF" p-id="5064"></path></svg>