<?xml version="1.0" standalone="no"?><!DOCTYPE svg PUBLIC "-//W3C//DTD SVG 1.1//EN" "http://www.w3.org/Graphics/SVG/1.1/DTD/svg11.dtd"><svg t="1576573994791" class="icon" viewBox="0 0 1024 1024" version="1.1" xmlns="http://www.w3.org/2000/svg" p-id="4505" xmlns:xlink="http://www.w3.org/1999/xlink" width="200" height="200"><defs><style type="text/css"></style></defs><path d="M398.106122 476.995918h-203.755102c-43.885714 0-79.412245-35.526531-79.412244-79.412245v-203.755102C114.938776 150.465306 150.465306 114.938776 194.35102 114.938776h203.755102c43.885714 0 79.412245 35.526531 79.412245 79.412244v203.755102c-0.522449 43.363265-36.04898 78.889796-79.412245 78.889796zM398.106122 909.061224h-203.755102c-43.885714 0-79.412245-35.526531-79.412244-79.412244v-203.755102c0-43.885714 35.526531-79.412245 79.412244-79.412245h203.755102c43.885714 0 79.412245 35.526531 79.412245 79.412245v203.755102c-0.522449 43.885714-36.04898 79.412245-79.412245 79.412244zM829.64898 909.061224h-203.755102c-43.885714 0-79.412245-35.526531-79.412245-79.412244v-203.755102c0-43.885714 35.526531-79.412245 79.412245-79.412245h203.755102c43.885714 0 79.412245 35.526531 79.412244 79.412245v203.755102c0 43.885714-35.526531 79.412245-79.412244 79.412244z" fill="#7BD4EF" p-id="4506"></path><path d="M727.771429 476.995918c-99.787755 0-181.289796-81.502041-181.289796-181.289796S627.983673 114.938776 727.771429 114.938776 909.061224 196.440816 909.061224 296.228571s-81.502041 180.767347-181.289795 180.767347z" fill="#F2CB51" p-id="4507"></path></svg>