<?xml version="1.0" standalone="no"?><!DOCTYPE svg PUBLIC "-//W3C//DTD SVG 1.1//EN" "http://www.w3.org/Graphics/SVG/1.1/DTD/svg11.dtd"><svg t="1546567963456" class="icon" style="" viewBox="0 0 1028 1024" version="1.1" xmlns="http://www.w3.org/2000/svg" p-id="3728" xmlns:xlink="http://www.w3.org/1999/xlink" width="200.78125" height="200"><defs><style type="text/css"></style></defs><path d="M320.747082 1024H0V0h1024v501.540856h-69.727626V69.727626H69.727626v884.544748h251.019456z" p-id="3729" fill="#bfbfbf"></path><path d="M903.171984 669.385214L786.228794 786.228794h87.657587c0 96.722179-78.592996 175.315175-175.315175 175.315175-28.588327 0.099611-56.678599-6.972763-81.780545-20.420234l-42.633463 42.633463c37.154864 23.707393 80.385992 36.258366 124.513619 36.258366C827.766537 1020.015564 932.357977 915.424125 932.357977 786.228794h87.657587L903.171984 669.385214zM523.256031 786.228794c0-96.722179 78.592996-175.315175 175.315175-175.315175 29.484825 0 57.575097 7.271595 81.780545 20.420233l42.633463-42.633463c-37.154864-23.707393-80.385992-36.258366-124.513619-36.258366-129.195331 0-233.78677 104.59144-233.78677 233.786771h-87.657588L494.070039 903.171984l116.84358-116.843579h-87.657588v-0.099611zM806.848249 241.357198H139.455253V295.844358h667.392996zM517.976654 482.814008H139.455253v54.387548h378.521401zM309.789883 724.171206H139.455253v54.48716h170.33463z" p-id="3730" fill="#bfbfbf"></path></svg>