<?xml version="1.0" standalone="no"?><!DOCTYPE svg PUBLIC "-//W3C//DTD SVG 1.1//EN" "http://www.w3.org/Graphics/SVG/1.1/DTD/svg11.dtd"><svg t="1544607474278" class="icon" style="" viewBox="0 0 1024 1024" version="1.1" xmlns="http://www.w3.org/2000/svg" p-id="5709" xmlns:xlink="http://www.w3.org/1999/xlink" width="200" height="200"><defs><style type="text/css"></style></defs><path d="M856.96 115.904H222.144v105.472h-77.44c-14.528 0-28.544 10.368-28.544 24.96v52.48c0 14.528 14.016 28.032 28.544 28.032H222.08v52.992H144.704c-14.528 0-28.544 10.368-28.544 24.96v52.992c0 14.528 14.016 28.032 28.544 28.032H222.08v51.968H144.704c-14.528 0-28.544 10.368-28.544 24.96v52.992c0 14.528 14.016 28.032 28.544 28.032H222.08v52.992H144.704c-14.528 0-28.544 10.368-28.544 24.96v52.992c0 14.528 14.016 28.032 28.544 28.032H222.08v105.472h634.816c29.12 0 50.88-25.472 50.88-54.528V167.872c0.064-30.144-21.76-51.968-50.816-51.968zM380.032 854.08H274.624v-52.992h28.544c14.528 0 24.384-13.504 24.384-28.032v-52.992c0-14.528-9.856-24.96-24.384-24.96h-28.544v-52.992h28.544c14.528 0 24.384-13.504 24.384-28.032v-51.456c0-14.528-9.856-24.96-24.384-24.96h-28.544v-52.928h28.544c14.528 0 24.384-13.504 24.384-28.032v-52.48c0-14.528-9.856-24.96-24.384-24.96h-28.544v-52.48h28.544c14.528 0 24.384-13.504 24.384-28.032V245.76c0-14.528-9.856-24.96-24.384-24.96h-28.544v-52.48h105.472l-0.064 685.76z" fill="#bfbfbf" p-id="5710"></path></svg>