<?xml version="1.0" standalone="no"?><!DOCTYPE svg PUBLIC "-//W3C//DTD SVG 1.1//EN" "http://www.w3.org/Graphics/SVG/1.1/DTD/svg11.dtd"><svg t="1579141915482" class="icon" viewBox="0 0 1024 1024" version="1.1" xmlns="http://www.w3.org/2000/svg" p-id="2274" xmlns:xlink="http://www.w3.org/1999/xlink" width="200" height="200"><defs><style type="text/css"></style></defs><path d="M861.9 555.2L469.2 162.4l-0.4-0.4c-29.4-29.5-77.4-29.5-106.9-0.1L165.5 358.5l-0.1 0.1c-14.3 14.3-22.1 33.3-22.1 53.5s7.9 39.2 22.2 53.4l393 393.2 0.2 0.2c14.7 14.6 34 21.9 53.3 21.9 19.4 0 38.7-7.4 53.4-22.1l196.4-196.5 0.3-0.3c29.3-29.4 29.2-77.3-0.2-106.7z m-28.2 78.7L637.1 830.5c-6.7 6.7-15.6 10.4-25.1 10.4-9.5 0-18.4-3.7-25.1-10.4l-0.3-0.3-392.9-393c-6.7-6.7-10.4-15.7-10.5-25.2s3.7-18.5 10.4-25.1l196.6-196.7c13.8-13.8 36.3-13.8 50.2-0.1l393.2 393.4c13.9 13.9 13.9 36.5 0.1 50.4z" fill="#d81e06" p-id="2275"></path><path d="M271 366.3c11.7 10 20.3 11.6 26.5 8.2 6.5-3.8 16.4-12.8 33.4-30.3l36.5-37.7c15-15.4 13.2-15.5 13.6-22.6 0.2-6.5-1.9-12.3-10.8-22.9l2.4-2.4 23 22.3-2.7 175.3 0.6 0.5 48-49.5c32.8-33.8 37-38.5 16.5-61.1l2.4-2.4 46.3 44.9-2.4 2.4c-11.7-9.6-19.5-10.9-26.1-7.5-6.9 3.8-15.7 12.4-31.5 28.7L381 480l-2.1-2 2.3-174.6-0.4-0.4-44.8 46.2c-16.8 17.7-25.9 27.4-29.3 33.6-3.5 7-1 15.6 10.7 28.6l-2.4 2.4-46.5-45.1 2.5-2.4zM404.9 496c18.4 16.1 22.6 14.5 35.5 1.1l66-68c14.5-14.9 15.8-19.3 1-35l2.4-2.4 81.2 78.7c-5.9 6.1-14.9 17.2-24.1 28.2l-3.7-2.6c13.3-21.5 14.8-30.2-7.8-52.1l-17.5-17c-5-4.9-5.6-4.7-9.9-0.2l-39.4 40.6 21.8 21.2c14.7 14.3 20 16 34.1 7.1l3.2 3.1-31.5 32.3-3.2-3.1c10-16.3 6.7-20.8-7.5-34.5l-21.8-21.2-32.8 33.8c-15.8 16.3-8.2 23.7 7.3 38.8 11.4 11 22.8 21.7 35 21.1 6.2-0.4 16.7-2 27.1-7l3.2 3.1c-7.9 4.8-26.4 16.8-33.7 21.3l-87.4-84.7 2.5-2.6zM667.3 585.5c-43.1 19.5-82.6 37.8-121.4 55.7l-2.4-2.4c20-39.3 38.7-80.7 58.2-120.1 8.7-16.8 8.4-22.5-1.8-35.1l2.4-2.4 40.5 39.3-2.4 2.4c-11.2-7.9-16.7-11.2-21.4-6.3-1.3 1.4-2.5 3.3-3.6 5.9-15.7 31.5-32.4 66.6-49.5 101.9l0.4 0.4c41.9-20 82.8-37.9 122.3-55.9l2.1 2c-18 38.8-35 77.9-54.7 121.1l0.4 0.4c33.3-15.2 84.6-40.2 99.2-50 2.4-1.7 4.6-3.3 6-4.7 5.4-5.6 2.8-10.7-5.2-21.9l2.4-2.4 39 37.8-2.4 2.4c-13.4-9.7-17.7-9-35.6-1.8-22.2 9.5-60.8 27.6-122.9 58l-2.6-2.5c18.2-38.6 43.3-96.1 53.7-121.4l-0.7-0.4z" fill="#d81e06" p-id="2276"></path></svg>