<?xml version="1.0" standalone="no"?><!DOCTYPE svg PUBLIC "-//W3C//DTD SVG 1.1//EN" "http://www.w3.org/Graphics/SVG/1.1/DTD/svg11.dtd"><svg t="1579141981680" class="icon" viewBox="0 0 1024 1024" version="1.1" xmlns="http://www.w3.org/2000/svg" p-id="7208" xmlns:xlink="http://www.w3.org/1999/xlink" width="200" height="200"><defs><style type="text/css"></style></defs><path d="M347.733333 308.821333h1.450667a21.333333 21.333333 0 0 1 21.333333 21.333334v364.970666a21.333333 21.333333 0 0 1-21.333333 21.333334H347.733333a21.333333 21.333333 0 0 1-21.333333-21.333334V330.154667a21.333333 21.333333 0 0 1 21.333333-21.333334z m349.44 19.712v365.653334a21.333333 21.333333 0 0 1-21.333333 21.333333h-209.365333a21.333333 21.333333 0 0 1-21.333334-21.333333V328.533333a21.333333 21.333333 0 0 1 21.333334-21.333333h209.365333a21.333333 21.333333 0 0 1 21.333333 21.333333z m-208.853333 344h165.674667V529.28H488.32v143.232z m0-185.664h165.674667v-137.898666H488.32v137.898666z" fill="#1296db" p-id="7209"></path><path d="M675.328 117.717333a21.333333 21.333333 0 0 1-16.341333 39.402667A382.762667 382.762667 0 0 0 512 128C299.925333 128 128 299.925333 128 512s171.925333 384 384 384 384-171.925333 384-384c0-51.114667-9.984-100.8-29.12-146.986667a21.333333 21.333333 0 0 1 39.402667-16.341333A425.429333 425.429333 0 0 1 938.666667 512c0 235.648-191.018667 426.666667-426.666667 426.666667S85.333333 747.648 85.333333 512 276.352 85.333333 512 85.333333c56.746667 0 112 11.093333 163.328 32.384z" fill="#1296db" p-id="7210"></path></svg>