<?xml version="1.0" standalone="no"?><!DOCTYPE svg PUBLIC "-//W3C//DTD SVG 1.1//EN" "http://www.w3.org/Graphics/SVG/1.1/DTD/svg11.dtd"><svg t="1586753202246" class="icon" viewBox="0 0 1092 1024" version="1.1" xmlns="http://www.w3.org/2000/svg" p-id="15994" xmlns:xlink="http://www.w3.org/1999/xlink" width="213.28125" height="200"><defs><style type="text/css"></style></defs><path d="M716.8 955.733333h-546.133333C75.093333 955.733333 0 880.64 0 785.066667v-614.4C0 75.093333 75.093333 0 170.666667 0h546.133333C812.373333 0 887.466667 75.093333 887.466667 170.666667v614.4c0 95.573333-75.093333 170.666667-170.666667 170.666666z m-546.133333-887.466666C116.053333 68.266667 68.266667 116.053333 68.266667 170.666667v614.4c0 54.613333 47.786667 102.4 102.4 102.4h546.133333c54.613333 0 102.4-47.786667 102.4-102.4v-614.4c0-54.613333-47.786667-102.4-102.4-102.4h-546.133333z" fill="#317EF2" p-id="15995"></path><path d="M648.533333 204.8h-409.6c-20.48 0-34.133333-13.653333-34.133333-34.133333s13.653333-34.133333 34.133333-34.133334h409.6c20.48 0 34.133333 13.653333 34.133334 34.133334s-13.653333 34.133333-34.133334 34.133333zM648.533333 409.6h-409.6c-20.48 0-34.133333-13.653333-34.133333-34.133333s13.653333-34.133333 34.133333-34.133334h409.6c20.48 0 34.133333 13.653333 34.133334 34.133334s-13.653333 34.133333-34.133334 34.133333zM477.866667 614.4H238.933333c-20.48 0-34.133333-13.653333-34.133333-34.133333s13.653333-34.133333 34.133333-34.133334H477.866667c20.48 0 34.133333 13.653333 34.133333 34.133334S498.346667 614.4 477.866667 614.4z" fill="#317EF2" p-id="15996"></path><path d="M750.933333 682.666667m-307.2 0a307.2 307.2 0 1 0 614.4 0 307.2 307.2 0 1 0-614.4 0Z" fill="#FFFFFF" p-id="15997"></path><path d="M750.933333 1024c-191.146667 0-341.333333-150.186667-341.333333-341.333333s150.186667-341.333333 341.333333-341.333334 341.333333 150.186667 341.333334 341.333334-150.186667 341.333333-341.333334 341.333333z m0-614.4c-150.186667 0-273.066667 122.88-273.066666 273.066667s122.88 273.066667 273.066666 273.066666 273.066667-122.88 273.066667-273.066666-122.88-273.066667-273.066667-273.066667z" fill="#317EF2" p-id="15998"></path><path d="M546.133333 628.053333h54.613334L614.4 477.866667h286.72v150.186666h54.613333v34.133334h-61.44c0 47.786667-6.826667 88.746667-6.826666 122.88h47.786666v34.133333H887.466667c0 47.786667-27.306667 75.093333-81.92 68.266667h-61.44c0-13.653333-6.826667-20.48-6.826667-40.96h68.266667c27.306667 0 40.96-13.653333 47.786666-40.96H573.44l20.48-150.186667H546.133333v-27.306667z m68.266667 157.013334h245.76c0-13.653333 0-34.133333 6.826667-61.44 0-27.306667 0-47.786667 6.826666-61.44H628.053333L614.4 785.066667z m34.133333-273.066667l-13.653333 116.053333h232.106667c0-20.48 0-54.613333 6.826666-109.226666v-13.653334H648.533333v6.826667z m47.786667 184.32l27.306667-20.48c27.306667 27.306667 47.786667 54.613333 68.266666 75.093333l-27.306666 27.306667c-6.826667-6.826667-6.826667-13.653333-13.653334-20.48-27.306667-34.133333-40.96-47.786667-54.613333-61.44z m6.826667-150.186667l27.306666-20.48 68.266667 68.266667-27.306667 27.306667c-6.826667-13.653333-20.48-34.133333-47.786666-54.613334-6.826667-13.653333-13.653333-20.48-20.48-20.48z" fill="#317EF2" p-id="15999"></path></svg>