<?xml version="1.0" standalone="no"?><!DOCTYPE svg PUBLIC "-//W3C//DTD SVG 1.1//EN" "http://www.w3.org/Graphics/SVG/1.1/DTD/svg11.dtd"><svg t="1575254158853" class="icon" viewBox="0 0 1024 1024" version="1.1" xmlns="http://www.w3.org/2000/svg" p-id="1796" xmlns:xlink="http://www.w3.org/1999/xlink" width="200" height="200"><defs><style type="text/css"></style></defs><path d="M451.4 394.1c-16.6 36.4-46.2 72.3-89.2 79.8 8.5 2 17.3 3.2 26.4 3.2 62.7 0 113.8-51 113.8-113.8 0-39.4-20.2-74.2-50.7-94.7 31.1 34.6 18.7 83.7-0.3 125.5zM786.2 379.6c-8.1 17.8-21 35.4-38.6 45.5h0.2c37.6 0 68.1-30.6 68.1-68.1 0-19.9-8.7-37.9-22.4-50.3 11.2 21.8 3.6 49.1-7.3 72.9z" fill="#FFD524" p-id="1797"></path><path d="M747.9 475.6c65.4 0 118.6-53.2 118.6-118.6s-53.2-118.6-118.6-118.6S629.2 291.6 629.2 357s53.3 118.6 118.7 118.6z m0-186.7c17.6 0 33.6 6.8 45.7 17.8C807.3 319.1 816 337 816 357c0 37.6-30.6 68.1-68.1 68.1h-0.2c-37.4-0.1-67.9-30.6-67.9-68.1 0-37.6 30.5-68.1 68.1-68.1zM388.6 541.8c-29.5 0-58.7 3.8-86.9 11.4-13.5 3.6-21.4 17.5-17.8 31 3.6 13.5 17.5 21.4 31 17.8 23.9-6.4 48.7-9.7 73.7-9.7 132.5 0 245.7 90 275.4 218.9 2.7 11.7 13.1 19.6 24.6 19.6 1.9 0 3.8-0.2 5.7-0.7 13.6-3.1 22.1-16.7 19-30.3-35.1-151.9-168.6-258-324.7-258zM218.6 588.4c-2.9 1.7-5.8 3.5-8.6 5.3-11.8 7.5-15.2 23.1-7.7 34.9 4.8 7.6 13 11.7 21.3 11.7 4.6 0 9.3-1.3 13.6-4 2.4-1.5 4.9-3 7.3-4.5 12-7.1 15.9-22.6 8.8-34.6-7.2-12-22.7-15.9-34.7-8.8zM140.5 652.7c-37.5 41.8-64 92.7-76.5 147.2-3.1 13.6 5.4 27.2 19 30.3 1.9 0.4 3.8 0.7 5.7 0.7 11.5 0 21.9-7.9 24.6-19.6 10.6-46.2 33.1-89.4 64.9-124.9 9.3-10.4 8.4-26.4-1.9-35.7-10.5-9.3-26.5-8.4-35.8 2zM959.7 674.3C936 571.5 845.8 499.7 740.2 499.7c-38.7 0-76.9 10-110.4 28.9-12.2 6.8-16.5 22.3-9.6 34.4 6.9 12.2 22.3 16.5 34.4 9.6 26-14.6 55.6-22.4 85.6-22.4 81.9 0 152 55.7 170.3 135.4 2.7 11.7 13.1 19.6 24.6 19.6 1.9 0 3.8-0.2 5.7-0.7 13.5-3 22-16.6 18.9-30.2zM552.9 363.3c0-90.6-73.7-164.3-164.3-164.3s-164.3 73.7-164.3 164.3S298 527.6 388.6 527.6s164.3-73.7 164.3-164.3z m-278.1 0c0-62.8 51.1-113.8 113.8-113.8 23.3 0 45 7.1 63.1 19.1 30.6 20.4 50.7 55.2 50.7 94.7 0 62.8-51.1 113.8-113.8 113.8-9.1 0-17.9-1.2-26.4-3.2-50.1-12-87.4-56.9-87.4-110.6z" fill="#333333" p-id="1798"></path></svg>