<?xml version="1.0" standalone="no"?><!DOCTYPE svg PUBLIC "-//W3C//DTD SVG 1.1//EN" "http://www.w3.org/Graphics/SVG/1.1/DTD/svg11.dtd"><svg t="1575530364543" class="icon" viewBox="0 0 1024 1024" version="1.1" xmlns="http://www.w3.org/2000/svg" p-id="1830" xmlns:xlink="http://www.w3.org/1999/xlink" width="200" height="200"><defs><style type="text/css"></style></defs><path d="M688.2 335.2m-121.1 0a121.1 121.1 0 1 0 242.2 0 121.1 121.1 0 1 0-242.2 0Z" fill="#E9007D" p-id="1831"></path><path d="M429.5 530H194.4c-7.8 0-14.1-6.3-14.1-14.1v-235c0-7.8 6.3-14.1 14.1-14.1h235.1c7.8 0 14.1 6.3 14.1 14.1V516c0 7.7-6.3 14-14.1 14zM429.5 814.8H194.4c-7.8 0-14.1-6.3-14.1-14.1V565.6c0-7.8 6.3-14.1 14.1-14.1h235.1c7.8 0 14.1 6.3 14.1 14.1v235.1c0 7.8-6.3 14.1-14.1 14.1zM721.4 814.8H486.3c-7.8 0-14.1-6.3-14.1-14.1V565.6c0-7.8 6.3-14.1 14.1-14.1h235.1c7.8 0 14.1 6.3 14.1 14.1v235.1c0 7.8-6.4 14.1-14.1 14.1z" fill="#E5E8EA" p-id="1832"></path><path d="M496 771.8H260.9c-7.8 0-14.1-6.3-14.1-14.1v-235c0-7.8 6.3-14.1 14.1-14.1H496c7.8 0 14.1 6.3 14.1 14.1v235.1c-0.1 7.7-6.4 14-14.1 14z" fill="#52ADFF" p-id="1833"></path><path d="M496 785.8H260.9c-15.5 0-28.1-12.6-28.1-28.1v-235c0-15.5 12.6-28.1 28.1-28.1H496c15.5 0 28.1 12.6 28.1 28.1v235.1c-0.1 15.4-12.6 28-28.1 28zM260.9 522.6l-0.1 235.2 0.1 0.1H496l0.1-235.2-0.1-0.1H260.9z" fill="" p-id="1834"></path><path d="M497.6 467.9H262.5c-7.8 0-14.1-6.3-14.1-14.1V218.7c0-7.8 6.3-14.1 14.1-14.1h235.1c7.8 0 14.1 6.3 14.1 14.1v235.1c0 7.8-6.3 14.1-14.1 14.1z" fill="#FFFFFF" p-id="1835"></path><path d="M497.6 481.9H262.5c-15.5 0-28.1-12.6-28.1-28.1V218.7c0-15.5 12.6-28.1 28.1-28.1h235.1c15.5 0 28.1 12.6 28.1 28.1v235.1c0 15.5-12.6 28.1-28.1 28.1zM262.5 218.7l-0.1 235.2 0.1 0.1h235.1l0.1-235.2-0.1-0.1H262.5z" fill="" p-id="1836"></path><path d="M806.2 771.8h-235c-7.8 0-14.1-6.3-14.1-14.1v-235c0-7.8 6.3-14.1 14.1-14.1h235.1c7.8 0 14.1 6.3 14.1 14.1v235.1c-0.1 7.7-6.4 14-14.2 14z" fill="#FFFFFF" p-id="1837"></path><path d="M806.2 785.8h-235c-15.5 0-28.1-12.6-28.1-28.1v-235c0-15.5 12.6-28.1 28.1-28.1h235.1c15.5 0 28.1 12.6 28.1 28.1v235.1c-0.1 15.4-12.7 28-28.2 28z m-235-263.2l-0.1 235.2 0.1 0.1h235.1l0.1-235.2-0.1-0.1H571.2z" fill="" p-id="1838"></path><path d="M688.5 412.4c-1.9 0-3.8-0.1-5.7-0.2-20.6-1.5-39.3-10.9-52.8-26.5s-20.1-35.5-18.6-56.1c0.6-7.7 7.2-13.5 15-12.9 7.7 0.6 13.5 7.3 12.9 15-1 13.1 3.2 25.8 11.8 35.7s20.5 15.9 33.6 16.9c6.6 0.5 13.1-0.3 19.4-2.5 7.3-2.5 15.3 1.4 17.8 8.8 2.5 7.3-1.4 15.3-8.8 17.8-7.9 2.7-16.1 4-24.6 4zM751.1 341.1c-6.9 0-13-5.1-13.9-12.2-3-23-22-41-45.2-42.7-7.3-0.5-14.5 0.5-21.3 3.1-7.2 2.8-15.3-0.8-18.1-8-2.8-7.2 0.8-15.3 8-18.1 10.7-4.1 21.9-5.8 33.4-5 36.4 2.7 66.2 30.8 70.9 67 1 7.7-4.4 14.7-12.1 15.7-0.5 0.1-1.1 0.2-1.7 0.2z" fill="#FFFFFF" p-id="1839"></path></svg>