<?xml version="1.0" standalone="no"?><!DOCTYPE svg PUBLIC "-//W3C//DTD SVG 1.1//EN" "http://www.w3.org/Graphics/SVG/1.1/DTD/svg11.dtd"><svg t="1544607289981" class="icon" style="" viewBox="0 0 1024 1024" version="1.1" xmlns="http://www.w3.org/2000/svg" p-id="1034" xmlns:xlink="http://www.w3.org/1999/xlink" width="200" height="200"><defs><style type="text/css"></style></defs><path d="M578.587 758.356c-54.18 28.236-84.020 27.89-126.836 7.46-42.582-20.431-398.41-169.075-398.41-169.075v0 107.78c0 9.3 12.972 19.054 37.076 30.644 48.668 23.306 318.752 132.227 361.219 152.775 42.586 20.431 72.657 20.547 126.836-7.46 54.175-28.236 307.728-132.345 356.742-158.057v0c24.908-12.966 35.925-23.186 35.925-32.254v-106.401h-0.115c-0.115-0.114-338.495 146.234-392.438 174.587v0zM578.587 758.356z" p-id="1035"></path><path d="M578.587 606.954c-54.18 28.236-84.020 27.89-126.836 7.46-42.582-20.547-398.41-169.303-398.41-169.303v0 107.787c0 9.292 12.972 19.054 37.076 30.644 48.668 23.414 318.752 132.345 361.219 152.889 42.586 20.431 72.657 20.547 126.836-7.46 54.175-28.236 307.728-132.345 356.742-158.057 24.908-12.97 35.925-23.184 35.925-32.253v-106.405h-0.115c-0.115-0.001-338.495 146.348-392.438 174.698v0zM578.587 606.954z" p-id="1036"></path><path d="M971.251 290.388c0.46-9.3-11.936-17.565-36.386-26.519-47.749-17.559-299.923-117.884-348.246-135.556-48.439-17.68-68.066-16.875-124.769 3.328-56.703 20.203-325.297 125.689-373.047 144.396-24.103 9.414-35.81 18.255-35.121 27.663v-0.114 106.060c0 0 355.598 149.792 398.41 170.223 42.581 20.431 72.657 20.547 126.836-7.46 54.060-28.467 392.668-177.223 392.668-177.223l-0.343-104.797zM852.457 293.254l-139.463 54.979-125.682-49.698 139.229-55.099 125.917 49.818zM594.883 345.48l-64.393 94.24-148.304-61.525 212.698-32.715zM483.197 202.233l-20.547-37.995 64.169 25.025 60.377-19.858-16.415 39.138 61.634 23.186-79.542 8.151-17.909 43.046-28.69-47.87-91.829-8.15 68.755-24.674zM324.801 255.604c62.784 0 113.746 19.627 113.746 44.076 0 24.22-50.961 44.076-113.746 44.076-62.788 0-113.749-19.626-113.749-44.076 0.114-24.103 50.96-44.076 113.749-44.076v0zM324.801 255.604z" p-id="1037"></path></svg>