<?xml version="1.0" standalone="no"?><!DOCTYPE svg PUBLIC "-//W3C//DTD SVG 1.1//EN" "http://www.w3.org/Graphics/SVG/1.1/DTD/svg11.dtd"><svg t="1586488916592" class="icon" viewBox="0 0 1024 1024" version="1.1" xmlns="http://www.w3.org/2000/svg" p-id="1911" xmlns:xlink="http://www.w3.org/1999/xlink" width="200" height="200"><defs><style type="text/css"></style></defs><path d="M832.012919 94.070492c-14.678304 3.25002-29.331026 6.622838-44.008306 9.880021-27.132964 6.021134-54.271044 12.017708-81.418334 17.972327-15.370059 3.373841-30.78105 6.573719-46.1419 9.985422-13.364379 2.968611-26.680663 6.126534-40.693818 9.358135 22.417569 21.664416 44.360324 42.872436 66.441225 64.212464-14.373359 15.196097-28.264741 29.904077-42.182728 44.588521-7.336082 7.741311-14.69263 15.465227-22.077831 23.160489-17.740036 18.476817-35.46063 36.973076-53.270251 55.384401-14.490016 14.979156-29.098735 29.843702-43.652196 44.760436-0.623193 0.63752-1.216711 1.301645-1.828648 1.948375-8.165983 8.616238-16.334014 17.2335-24.725124 26.087145-31.022551-28.303626-61.489446-56.100716-92.359524-84.268242-11.526521 12.047384-23.045879 24.166399-34.651194 36.199457-12.237719 12.68695-24.558325 25.294083-36.842093 37.938054-11.910261 12.261255-23.813359 24.523533-35.723619 36.784788-12.407588 12.769838-24.823362 25.53456-37.225833 38.310537-11.535731 11.876492-23.010063 23.810289-34.599006 35.635615-21.084201 21.516036-42.259476 42.942021-63.335491 64.46829-9.212826 9.403161-18.283412 18.945491-27.375487 28.464285-0.673335 0.704035-1.020236 1.721201-1.485841 2.536776 11.886725 11.390421 23.570835 22.520923 35.177174 33.731242 5.109368 4.934382 5.107321 5.074575 10.219759-0.207731 6.547113-6.767124 12.93459-13.688767 19.456121-20.478404 10.109242-10.526751 20.271696-20.998243 30.416753-31.490202 10.764158-11.130502 21.540595-22.248723 32.302707-33.383318 9.893324-10.237155 19.766183-20.491707 29.661553-30.726815 10.762111-11.132548 21.4925-22.298865 32.317033-33.373085 18.812461-19.240203 37.686321-38.422078 56.535621-57.629535 0.62524-0.638543 1.257643-1.2689 1.871627-1.915629 8.495488-8.986675 16.989953-17.97335 25.341155-26.809599 31.712259 28.323069 62.815651 56.105832 94.433766 84.342943 8.413624-8.945743 16.382109-17.514909 24.458041-25.986861 15.950274-16.733103 31.956829-33.410947 47.941895-50.106188 16.234753-16.95516 32.472576-33.905204 48.707328-50.859341 15.988136-16.694217 31.918967-33.444716 47.974641-50.075489 14.224979-14.736633 28.630061-29.303396 42.86732-44.030819 4.26821-4.412496 8.238638-9.109472 12.56927-13.923104 24.399713 23.01825 48.229444 45.49824 72.64246 68.529793 1.336438-7.110955 2.520403-13.071713 3.564175-19.058055 2.707668-15.528672 5.326309-31.072693 8.033977-46.601364 2.285043-13.107529 4.691859-26.192545 6.968715-39.300075 2.667759-15.359826 5.230118-30.737048 7.880481-46.098921 2.709715-15.699564 5.395894-31.403221 8.245801-47.079248 1.25969-6.933923 2.888793-13.802354 4.352121-20.700461 0-0.357134 0-0.714268 0-1.071402C836.532863 93.464695 834.231447 93.579305 832.012919 94.070492z" p-id="1912"></path><path d="M712.8264 896.412137c32.260751 0 64.178695 0 96.495728 0 0-165.071569 0-329.72256 0-494.169913-32.485879 0-64.530712 0-96.495728 0C712.8264 567.171554 712.8264 731.694631 712.8264 896.412137z" p-id="1913"></path><path d="M538.228873 896.260687c32.42755 0 64.47136 0 96.704482 0 0-127.959324 0-255.576863 0-383.626237-32.556487 0-64.726164 0-96.704482 0C538.228873 640.815831 538.228873 768.55719 538.228873 896.260687z" p-id="1914"></path><path d="M358.281501 896.216685c32.473599 0 64.514339 0 96.517217 0 0-102.062514 0-203.734124 0-305.606303-32.249495 0-64.163345 0-96.517217 0C358.281501 692.794669 358.281501 794.589077 358.281501 896.216685z" p-id="1915"></path><path d="M197.580472 896.212592c32.477692 0 64.520479 0 96.504938 0 0-69.924559 0-139.457192 0-209.1863-32.255635 0-64.168462 0-96.504938 0C197.580472 757.086951 197.580472 826.745451 197.580472 896.212592z" p-id="1916"></path></svg>