<?xml version="1.0" standalone="no"?><!DOCTYPE svg PUBLIC "-//W3C//DTD SVG 1.1//EN" "http://www.w3.org/Graphics/SVG/1.1/DTD/svg11.dtd"><svg t="1588581181722" class="icon" viewBox="0 0 1024 1024" version="1.1" xmlns="http://www.w3.org/2000/svg" p-id="3663" xmlns:xlink="http://www.w3.org/1999/xlink" width="200" height="200"><defs><style type="text/css">@font-face { font-family: rbicon; src: url("chrome-extension://dipiagiiohfljcicegpgffpbnjmgjcnf/fonts/rbicon.woff2") format("woff2"); font-weight: normal; font-style: normal; }
</style></defs><path d="M832 1024 192 1024c-70.4 0-128-57.6-128-128L64 128c0-70.4 57.6-128 128-128l640 0c70.4 0 128 57.6 128 128l0 768C960 966.4 902.4 1024 832 1024zM896 192c0-70.4-57.6-128-128-128L256 64C185.6 64 128 121.6 128 192l0 640c0 70.4 57.6 128 128 128l512 0c70.4 0 128-57.6 128-128L896 192zM256 704l512 0 0 64L256 768 256 704zM256 512l512 0 0 64L256 576 256 512zM256 320l512 0 0 64L256 384 256 320z" p-id="3664"></path></svg>