<?xml version="1.0" standalone="no"?><!DOCTYPE svg PUBLIC "-//W3C//DTD SVG 1.1//EN" "http://www.w3.org/Graphics/SVG/1.1/DTD/svg11.dtd"><svg t="1588582526960" class="icon" viewBox="0 0 1024 1024" version="1.1" xmlns="http://www.w3.org/2000/svg" p-id="5199" xmlns:xlink="http://www.w3.org/1999/xlink" width="200" height="200"><defs><style type="text/css">@font-face { font-family: rbicon; src: url("chrome-extension://dipiagiiohfljcicegpgffpbnjmgjcnf/fonts/rbicon.woff2") format("woff2"); font-weight: normal; font-style: normal; }
</style></defs><path d="M192.64 828.608l831.36 0 0 51.072-831.36 0 0-51.072Z" p-id="5200" fill="#bfbfbf"></path><path d="M192.64 600.896l831.36 0 0 50.496-831.36 0 0-50.496Z" p-id="5201" fill="#bfbfbf"></path><path d="M192.64 372.608l831.36 0 0 50.496-831.36 0 0-50.496Z" p-id="5202" fill="#bfbfbf"></path><path d="M192.64 144.32l831.36 0 0 50.56-831.36 0 0-50.56Z" p-id="5203" fill="#bfbfbf"></path><path d="M0 828.608l119.36 0 0 51.072-119.36 0 0-51.072Z" p-id="5204" fill="#bfbfbf"></path><path d="M0 600.896l119.36 0 0 50.496-119.36 0 0-50.496Z" p-id="5205" fill="#bfbfbf"></path><path d="M0 372.608l119.36 0 0 50.496-119.36 0 0-50.496Z" p-id="5206" fill="#bfbfbf"></path><path d="M0 144.32l119.36 0 0 50.56-119.36 0 0-50.56Z" p-id="5207" fill="#bfbfbf"></path></svg>