<?xml version="1.0" standalone="no"?><!DOCTYPE svg PUBLIC "-//W3C//DTD SVG 1.1//EN" "http://www.w3.org/Graphics/SVG/1.1/DTD/svg11.dtd"><svg t="1588581552273" class="icon" viewBox="0 0 1024 1024" version="1.1" xmlns="http://www.w3.org/2000/svg" p-id="4608" xmlns:xlink="http://www.w3.org/1999/xlink" width="200" height="200"><defs><style type="text/css">@font-face { font-family: rbicon; src: url("chrome-extension://dipiagiiohfljcicegpgffpbnjmgjcnf/fonts/rbicon.woff2") format("woff2"); font-weight: normal; font-style: normal; }
</style></defs><path d="M714.17 98.23H311.83c-98.69 0-178.99 80.29-178.99 178.99v472.03c0 98.69 80.3 178.99 178.99 178.99h402.35c98.69 0 178.99-80.3 178.99-178.99V277.21c0-98.69-80.3-178.98-179-178.98z m0 748.21H311.83c-58.61 0-106.29-47.68-106.29-106.29V286.3c0-58.61 47.68-106.29 106.29-106.29h402.35c58.61 0 106.29 47.68 106.29 106.29v453.85c0 58.61-47.69 106.29-106.3 106.29z" fill="#bfbfbf" p-id="4609"></path><path d="M475.47 603.39l-85.85-69.64 81.6-70.59c7.49-6.49 10.5-16.15 8.93-25.25 1.28-7.72-0.63-15.92-6.15-22.3-9.84-11.38-27.06-12.63-38.45-2.78l-73.26 63.38v-67.49c0-15.06-12.2-27.26-27.26-27.26s-27.26 12.21-27.26 27.26v252.43c0 15.06 12.2 27.26 27.26 27.26s27.26-12.2 27.26-27.26v-70.27l78.83 63.95c5.05 4.1 11.12 6.09 17.15 6.09 7.93 0 15.81-3.44 21.19-10.09 5.14-6.34 6.86-14.27 5.59-21.73 1.59-9.38-1.67-19.29-9.58-25.71zM713.36 394.19c-14.21-5.07-29.78 2.34-34.83 16.54l-59.75 167.74-63.61-162.83c-5.48-14.01-21.27-20.96-35.31-15.47-12.34 4.82-19.17 17.64-16.89 30.21-0.74 4.64-0.41 9.51 1.43 14.2l90.18 230.85c0.14 0.35 0.33 0.65 0.48 0.99 0.24 0.54 0.5 1.07 0.77 1.59 0.51 0.98 1.06 1.91 1.67 2.8 0.29 0.43 0.56 0.86 0.87 1.27 0.91 1.19 1.89 2.3 2.97 3.3 0.08 0.08 0.15 0.17 0.24 0.25 1.18 1.08 2.47 2.01 3.81 2.86 0.41 0.26 0.85 0.48 1.27 0.72 1.09 0.61 2.21 1.14 3.37 1.6 0.27 0.11 0.51 0.27 0.79 0.37 0.18 0.06 0.35 0.08 0.53 0.14 1 0.33 2.01 0.58 3.04 0.8 0.41 0.09 0.83 0.21 1.24 0.28 1.41 0.23 2.83 0.36 4.27 0.37 0.02 0 0.04 0.01 0.06 0.01h0.04c1.56 0 3.08-0.16 4.58-0.42 0.45-0.08 0.89-0.21 1.33-0.31 1.12-0.25 2.21-0.56 3.28-0.94 0.23-0.08 0.46-0.11 0.69-0.2 0.25-0.1 0.46-0.25 0.7-0.36 1.18-0.5 2.31-1.08 3.41-1.74 0.36-0.22 0.75-0.41 1.1-0.65 1.34-0.89 2.61-1.89 3.78-3.01 0.21-0.2 0.38-0.43 0.58-0.64 0.92-0.95 1.78-1.96 2.57-3.04 0.3-0.42 0.57-0.86 0.85-1.29 0.59-0.92 1.13-1.88 1.61-2.89 0.25-0.52 0.49-1.04 0.71-1.58 0.14-0.35 0.34-0.67 0.47-1.04l84.25-236.54c1.61-4.51 1.83-9.13 1.1-13.54 2.24-12.89-4.94-25.87-17.65-30.4z" fill="#bfbfbf" p-id="4610"></path></svg>