<?xml version="1.0" standalone="no"?><!DOCTYPE svg PUBLIC "-//W3C//DTD SVG 1.1//EN" "http://www.w3.org/Graphics/SVG/1.1/DTD/svg11.dtd"><svg t="1588442686467" class="icon" viewBox="0 0 1024 1024" version="1.1" xmlns="http://www.w3.org/2000/svg" p-id="1165" xmlns:xlink="http://www.w3.org/1999/xlink" width="200" height="200"><defs><style type="text/css">@font-face { font-family: rbicon; src: url("chrome-extension://dipiagiiohfljcicegpgffpbnjmgjcnf/fonts/rbicon.woff2") format("woff2"); font-weight: normal; font-style: normal; }
</style></defs><path d="M512 805.547c-6.827 0-20.48-6.827-27.307-13.654-6.826-13.653-20.48-27.306-34.133-34.133-102.4-116.053-238.933-273.067-238.933-416.427 0-170.666 136.533-307.2 300.373-307.2s300.373 136.534 300.373 300.374c0 143.36-143.36 300.373-252.586 423.253-6.827 13.653-20.48 20.48-27.307 34.133 0 6.827-13.653 13.654-20.48 13.654z m0-696.32c-129.707 0-232.107 102.4-232.107 232.106 0 157.014 163.84 293.547 232.107 375.467 68.267-88.747 232.107-218.453 232.107-382.293 0-122.88-102.4-225.28-232.107-225.28z" fill="#515151" p-id="1166"></path><path d="M512 457.387c-68.267 0-129.707-61.44-129.707-136.534 0-68.266 61.44-129.706 129.707-129.706 75.093 0 129.707 61.44 129.707 129.706 6.826 75.094-54.614 136.534-129.707 136.534z m0-197.974c-34.133 0-61.44 27.307-61.44 61.44s27.307 61.44 61.44 61.44 61.44-27.306 61.44-61.44-27.307-61.44-61.44-61.44z m457.387 730.454H54.613c-13.653 0-20.48-6.827-27.306-13.654-6.827-6.826-6.827-20.48 0-34.133L163.84 662.187c0-13.654 13.653-20.48 27.307-20.48h75.093c20.48 0 34.133 13.653 34.133 34.133s-13.653 34.133-34.133 34.133h-54.613l-102.4 204.8h798.72l-88.747-204.8h-68.267c-20.48 0-34.133-13.653-34.133-34.133s13.653-34.133 34.133-34.133h88.747c13.653 0 27.307 6.826 34.133 20.48l122.88 279.893c6.827 13.653 6.827 20.48 0 34.133-6.826 6.827-20.48 13.654-27.306 13.654z" fill="#515151" p-id="1167"></path></svg>