<?xml version="1.0" standalone="no"?><!DOCTYPE svg PUBLIC "-//W3C//DTD SVG 1.1//EN" "http://www.w3.org/Graphics/SVG/1.1/DTD/svg11.dtd"><svg t="1649727681286" class="icon" viewBox="0 0 1024 1024" version="1.1" xmlns="http://www.w3.org/2000/svg" p-id="20343" xmlns:xlink="http://www.w3.org/1999/xlink" width="200" height="200"><defs><style type="text/css"></style></defs><path d="M874.666667 106.666667H149.333333c-23.466667 0-42.666667 19.2-42.666666 42.666666v469.333334h810.666666V149.333333c0-23.466667-19.2-42.666667-42.666666-42.666666zM384 469.333333c0 23.466667-19.2 42.666667-42.666667 42.666667h-42.666666c-23.466667 0-42.666667-19.2-42.666667-42.666667v-64c0-23.466667 19.2-42.666667 42.666667-42.666666h42.666666c23.466667 0 42.666667 19.2 42.666667 42.666666v64z m192 0c0 23.466667-19.2 42.666667-42.666667 42.666667h-42.666666c-23.466667 0-42.666667-19.2-42.666667-42.666667v-128c0-23.466667 19.2-42.666667 42.666667-42.666666h42.666666c23.466667 0 42.666667 19.2 42.666667 42.666666v128z m192 0c0 23.466667-19.2 42.666667-42.666667 42.666667h-42.666666c-23.466667 0-42.666667-19.2-42.666667-42.666667V256c0-23.466667 19.2-42.666667 42.666667-42.666667h42.666666c23.466667 0 42.666667 19.2 42.666667 42.666667v213.333333zM106.666667 725.333333c0 23.466667 19.2 42.666667 42.666666 42.666667h213.333334v85.333333h-138.666667c-17.066667 0-32 14.933333-32 32s14.933333 32 32 32h576c17.066667 0 32-14.933333 32-32s-14.933333-32-32-32H661.333333v-85.333333h213.333334c23.466667 0 42.666667-19.2 42.666666-42.666667v-42.666666H106.666667v42.666666z" p-id="20344"></path></svg>