<?xml version="1.0" standalone="no"?><!DOCTYPE svg PUBLIC "-//W3C//DTD SVG 1.1//EN" "http://www.w3.org/Graphics/SVG/1.1/DTD/svg11.dtd"><svg t="1588587273438" class="icon" viewBox="0 0 1024 1024" version="1.1" xmlns="http://www.w3.org/2000/svg" p-id="2276" xmlns:xlink="http://www.w3.org/1999/xlink" width="200" height="200"><defs><style type="text/css">@font-face { font-family: rbicon; src: url("chrome-extension://dipiagiiohfljcicegpgffpbnjmgjcnf/fonts/rbicon.woff2") format("woff2"); font-weight: normal; font-style: normal; }
</style></defs><path d="M403.456 877.568c-43.52-21.504-90.112-34.816-137.216-40.448 1.536-11.776 3.072-23.04 4.608-34.816 10.752-7.168 17.92-17.408 18.944-25.6 1.536-10.752 2.56-21.504 3.584-32.256 1.536 1.536 3.584 2.56 5.632 3.072 5.12 0.512 9.728-3.072 10.24-8.192l5.12-49.664c0.512-5.12-3.072-9.728-8.192-10.24-2.048-0.512-3.584 0.512-5.12 1.024 1.024-9.216 2.048-18.944 3.072-28.16 1.024-12.8 7.168-47.104-17.408-69.632-34.816-35.328-112.128-35.328-146.944 0-24.064 22.016-17.92 56.32-17.408 69.632 1.024 9.216 2.048 18.944 3.072 28.16-1.536-1.024-3.584-1.536-5.12-1.024-5.12 0.512-8.704 5.12-8.192 10.24l5.12 49.664c0.512 5.12 5.12 8.704 10.24 8.192 2.048 0 4.096-1.536 5.632-3.072 1.024 10.752 2.56 21.504 3.584 32.256 1.024 8.704 8.192 18.432 18.944 25.6 1.536 11.264 3.072 23.04 4.608 34.304-47.616 5.632-93.696 18.944-137.216 40.448-13.824 7.68-23.552 27.136-22.528 41.984 1.536 17.408 3.584 34.816 5.12 52.224 1.536 14.848 14.336 30.208 28.16 32.768 119.296 19.456 240.128 19.456 358.912 0 13.824-3.072 26.624-17.92 28.16-32.768 1.536-17.408 3.584-34.816 5.12-52.224 1.536-14.336-8.704-33.792-22.528-41.472z m598.016 0c-43.52-21.504-90.112-34.816-137.216-40.448 1.536-11.776 3.072-23.04 4.608-34.816 10.24-7.168 17.92-17.408 18.944-25.6 1.024-10.752 2.56-21.504 3.584-32.256 1.536 1.536 3.584 2.56 5.632 3.072 5.12 0.512 9.216-3.072 9.728-8.192l5.12-49.664c0.512-5.12-3.072-9.728-8.192-10.24-2.048-0.512-3.584 0.512-5.12 1.024 1.024-9.216 2.048-18.944 3.072-28.16 1.024-12.8 7.168-47.104-16.896-69.632-35.328-35.328-112.128-35.328-147.456 0-24.064 22.016-17.92 56.32-17.408 69.632 1.024 9.216 2.048 18.944 3.072 28.16-1.536-1.024-3.584-1.536-5.632-1.024-5.12 0.512-8.704 5.12-8.192 10.24l5.12 49.664c0.512 5.12 5.12 8.704 9.728 8.192 2.56 0 4.096-1.536 5.632-3.072 1.024 10.752 2.56 21.504 3.584 32.256 1.024 8.704 8.192 18.432 18.944 25.6 1.536 11.264 3.072 23.04 4.608 34.304-47.616 5.632-94.208 18.944-137.216 40.448-13.824 7.68-24.064 27.136-22.528 41.984 1.536 17.408 3.584 34.816 5.12 52.224 1.536 14.848 14.336 30.208 28.16 32.768 119.296 19.456 240.128 19.456 358.912 0 13.824-3.072 26.624-17.92 28.16-32.768 1.536-17.408 3.584-34.816 5.12-52.224 3.072-14.336-7.168-33.792-20.992-41.472zM702.464 325.12c-43.52-20.992-90.112-34.304-137.216-40.448 1.536-11.264 3.072-23.04 4.608-34.816 10.752-6.656 17.92-16.896 18.944-25.6 1.536-10.752 2.56-21.504 3.584-32.256 1.536 1.536 3.584 2.56 5.632 3.072 5.12 0.512 9.216-3.072 9.728-8.192l5.12-49.664c0.512-5.12-3.072-9.728-8.192-10.24-2.048 0-3.584 0.512-5.12 1.024 1.024-9.216 2.56-18.944 3.072-28.16 1.024-12.8 7.168-47.104-17.408-69.12-34.816-35.328-112.128-35.328-146.944 0-24.064 22.016-17.92 56.32-17.408 69.12 1.024 9.216 2.048 18.944 3.072 28.16-1.536-1.024-3.584-1.536-5.12-1.024-5.12 0.512-8.704 5.12-8.192 10.24l5.12 49.664c0.512 5.12 5.12 8.704 9.728 8.192 2.048-0.512 4.096-1.536 5.632-3.072 1.024 10.752 2.56 21.504 3.584 32.256 1.024 8.704 8.192 18.432 18.944 25.6 1.536 11.264 3.072 23.04 4.608 34.816-47.616 5.632-93.696 19.456-137.216 40.448-13.824 7.68-24.064 27.136-22.528 41.984 1.536 17.408 3.584 34.816 5.12 52.224 1.536 15.36 14.336 30.208 28.16 32.768 119.296 19.456 240.128 19.456 358.912 0 13.824-2.56 26.624-17.92 28.16-32.768 1.536-17.408 3.584-34.816 5.12-52.224 2.048-14.848-7.68-34.304-21.504-41.984z m-48.128 422.4L537.6 678.4v-137.728c0-14.848-11.776-26.624-26.112-26.624s-26.112 11.776-26.112 26.624v137.728L369.664 747.52c-12.288 7.168-16.896 23.552-9.216 36.352 4.608 8.704 13.312 13.312 22.528 13.312 4.608 0 8.704-1.024 12.8-3.584l116.736-68.608 116.736 68.608c4.096 2.56 8.704 3.584 12.8 3.584 9.216 0 17.92-4.608 22.528-13.312 6.656-12.288 2.56-28.672-10.24-36.352z" p-id="2277" fill="#707070"></path></svg>