<?xml version="1.0" standalone="no"?><!DOCTYPE svg PUBLIC "-//W3C//DTD SVG 1.1//EN" "http://www.w3.org/Graphics/SVG/1.1/DTD/svg11.dtd"><svg t="1649727419510" class="icon" viewBox="0 0 1024 1024" version="1.1" xmlns="http://www.w3.org/2000/svg" p-id="18534" xmlns:xlink="http://www.w3.org/1999/xlink" width="200" height="200"><defs><style type="text/css"></style></defs><path d="M375.36 32v224c0 32-196.16 32-196.16 0V32a245.12 245.12 0 0 0 20.8 457.28L132.16 800a151.04 151.04 0 0 0 0 64 148.48 148.48 0 1 0 289.92-64l-67.84-311.36A245.12 245.12 0 0 0 375.36 32zM277.44 896a68.16 68.16 0 1 1 68.16-68.16A68.16 68.16 0 0 1 277.44 896zM864 544V288l48.96-73.28a51.84 51.84 0 0 0 5.12-48L877.12 64a51.84 51.84 0 0 0-48-32H771.2a51.84 51.84 0 0 0-48 32l-40.96 102.72a51.84 51.84 0 0 0 5.12 48L736 288v256a128 128 0 0 0-128 128v192a128 128 0 0 0 128 128h128a128 128 0 0 0 128-128v-192a128 128 0 0 0-128-128z" fill="#bfbfbf" p-id="18535"></path></svg>