<?xml version="1.0" standalone="no"?><!DOCTYPE svg PUBLIC "-//W3C//DTD SVG 1.1//EN" "http://www.w3.org/Graphics/SVG/1.1/DTD/svg11.dtd"><svg t="1690351561879" class="icon" viewBox="0 0 1024 1024" version="1.1" xmlns="http://www.w3.org/2000/svg" p-id="10676" xmlns:xlink="http://www.w3.org/1999/xlink" width="200" height="200"><path d="M832 320H362.666667c-46.933333 0-85.333333 38.4-85.333334 85.333333v298.666667c0 46.933333 38.4 85.333333 85.333334 85.333333h149.333333l-21.333333 64h-74.666667c-17.066667 0-32 14.933333-32 32s14.933333 32 32 32h362.666667c17.066667 0 32-14.933333 32-32s-14.933333-32-32-32H704l-21.333333-64h149.333333c46.933333 0 85.333333-38.4 85.333333-85.333333V405.333333c0-46.933333-38.4-85.333333-85.333333-85.333333z" p-id="10677" fill="#bfbfbf"></path><path d="M320 885.333333c0-12.8 2.133333-25.6 6.4-36.266666-64-14.933333-113.066667-74.666667-113.066667-145.066667V405.333333c0-83.2 66.133333-149.333333 149.333334-149.333333h170.666666V192c0-46.933333-38.4-85.333333-85.333333-85.333333H192C145.066667 106.666667 106.666667 145.066667 106.666667 192v640c0 46.933333 38.4 85.333333 85.333333 85.333333h134.4c-4.266667-10.666667-6.4-21.333333-6.4-32z" p-id="10678" fill="#bfbfbf"></path></svg>